<svg xmlns="http://www.w3.org/2000/svg" width="155" height="117" viewBox="0 0 155 117"><g fill="#172849"><path d="M0,44.72 L0,100.27 C0,109.43 11.97,116.86 26.73,116.86 L127.47,116.86 C142.23,116.86 154.2,109.43 154.2,100.27 L154.2,44.72 L0,44.72 Z M124.73,100.06 L116.89,108.87 L117.33,109.36 L108.32,109.36 L108.76,108.87 L100.92,100.06 L93.08,108.87 L93.52,109.36 L84.51,109.36 L84.95,108.87 L77.11,100.06 L69.27,108.87 L69.71,109.36 L60.7,109.36 L61.14,108.87 L53.3,100.06 L45.46,108.87 L45.9,109.36 L36.89,109.36 L37.33,108.87 L29.49,100.06 L22.18,108.27 C13.64,106.24 7.66,101.62 7.66,96.23 L7.66,88.7 L13.52,82.12 L7.66,75.54 L7.66,61.94 L13.52,55.36 L10.72,52.21 L24.46,52.21 L21.66,55.36 L29.5,64.17 L37.34,55.36 L34.54,52.21 L48.27,52.21 L45.47,55.36 L53.31,64.17 L61.15,55.36 L58.35,52.21 L72.09,52.21 L69.29,55.36 L77.13,64.17 L84.97,55.36 L82.17,52.21 L95.91,52.21 L93.11,55.36 L100.95,64.17 L108.79,55.36 L105.99,52.21 L119.73,52.21 L116.93,55.36 L124.77,64.17 L132.61,55.36 L129.81,52.21 L143.55,52.21 L140.75,55.36 L147.21,62.62 L147.21,74.87 L140.75,82.13 L147.21,89.38 L147.21,96.24 C147.21,101.73 141,106.43 132.19,108.4 L124.78,100.08 L124.73,100.06 Z"/><polygon points="49.22 68.74 41.38 59.93 33.53 68.74 41.38 77.56"/><polygon points="77.1 73.31 69.26 82.12 77.1 90.93 84.94 82.12"/><polygon points="96.86 68.74 89.01 59.93 81.17 68.74 89.01 77.56"/><polygon points="73.04 68.74 65.19 59.93 57.35 68.74 65.19 77.56"/><polygon points="57.35 95.5 65.19 104.31 73.04 95.5 65.19 86.69"/><polygon points="120.67 68.74 112.83 59.93 104.98 68.74 112.83 77.56"/><polygon points="81.17 95.5 89.01 104.31 96.86 95.5 89.01 86.69"/><polygon points="100.92 73.31 93.08 82.12 100.92 90.93 108.76 82.12"/><polygon points="53.29 73.31 45.44 82.12 53.29 90.93 61.13 82.12"/><polygon points="144.49 68.74 136.64 59.93 128.8 68.74 136.64 77.56"/><polygon points="124.73 73.31 116.89 82.12 124.73 90.93 132.58 82.12"/><polygon points="136.64 86.69 128.8 95.5 136.64 104.31 144.49 95.5"/><polygon points="104.98 95.5 112.83 104.31 120.67 95.5 112.83 86.69"/><polygon points="33.53 95.5 41.38 104.31 49.22 95.5 41.38 86.69"/><polygon points="29.47 73.31 21.63 82.12 29.47 90.93 37.31 82.12"/><polygon points="25.4 68.74 17.56 59.93 9.72 68.74 17.56 77.56"/><polygon points="9.72 95.5 17.56 104.31 25.4 95.5 17.56 86.69"/><polygon points="146.5 0 146.5 22.91 7.71 22.91 7.71 0 0 0 0 22.91 0 37.85 7.71 37.85 146.5 37.85 154.21 37.85 154.21 22.91 154.21 0"/></g></svg>